<?xml version="1.0" standalone="no"?>
<!DOCTYPE svg PUBLIC "-//W3C//DTD SVG 20010904//EN"
 "http://www.w3.org/TR/2001/REC-SVG-20010904/DTD/svg10.dtd">
<svg version="1.0" xmlns="http://www.w3.org/2000/svg"
 width="150.000000pt" height="70.000000pt" viewBox="0 0 150.000000 70.000000"
 preserveAspectRatio="xMidYMid meet">

<g transform="translate(0.000000,70.000000) scale(0.100000,-0.100000)"
fill="#000000" stroke="none">
<path d="M189 684 c-62 -19 -131 -81 -160 -146 -36 -79 -36 -297 0 -376 45
-99 146 -162 263 -162 l48 0 0 59 0 59 -47 7 c-72 10 -107 31 -133 77 -20 36
-24 57 -24 138 -1 157 32 212 142 232 l62 12 0 58 0 58 -52 -1 c-29 0 -74 -7
-99 -15z"/>
<path d="M470 350 l0 -350 65 0 65 0 0 160 0 160 73 0 73 0 22 60 21 60 -94 0
-95 0 0 65 0 65 115 0 116 0 18 43 c10 23 21 52 25 65 l7 22 -205 0 -206 0 0
-350z"/>
<path d="M1047 657 c-9 -26 -14 -47 -12 -47 8 0 36 73 32 84 -2 6 -11 -11 -20
-37z"/>
<path d="M1074 663 c-14 -36 -32 -115 -18 -83 15 33 43 120 39 120 -3 0 -12
-17 -21 -37z"/>
<path d="M1087 625 c-36 -107 -33 -120 4 -21 16 44 28 84 26 90 -2 6 -16 -25
-30 -69z"/>
<path d="M1131 678 c-39 -105 -61 -172 -57 -176 6 -6 6 -6 45 111 16 48 28 87
25 87 -2 0 -8 -10 -13 -22z"/>
<path d="M1127 595 c-49 -146 -46 -158 4 -21 22 60 38 114 36 120 -2 6 -20
-39 -40 -99z"/>
<path d="M1186 689 c-3 -8 -24 -66 -46 -129 -22 -63 -39 -119 -37 -124 2 -6
24 51 49 124 25 74 44 137 42 139 -2 2 -6 -2 -8 -10z"/>
<path d="M1165 559 c-59 -175 -60 -179 -47 -159 16 24 103 282 99 293 -2 6
-25 -55 -52 -134z"/>
<path d="M1236 689 c-59 -165 -113 -329 -108 -329 9 0 123 333 117 339 -3 2
-7 -2 -9 -10z"/>
<path d="M1201 514 c-35 -101 -62 -187 -59 -189 2 -3 33 78 68 180 34 102 61
188 58 190 -2 2 -32 -79 -67 -181z"/>
<path d="M1266 628 c-68 -190 -115 -333 -111 -337 3 -2 7 2 10 10 55 153 134
393 131 396 -2 2 -15 -29 -30 -69z"/>
<path d="M1237 472 c-43 -125 -73 -222 -68 -217 5 6 35 84 66 175 31 91 64
184 72 207 8 24 13 47 11 52 -1 6 -38 -92 -81 -217z"/>
<path d="M1331 668 c-81 -228 -152 -440 -148 -444 2 -3 41 102 86 232 45 130
80 239 77 241 -2 2 -9 -11 -15 -29z"/>
<path d="M1345 563 c-27 -76 -70 -200 -96 -275 -26 -76 -45 -138 -41 -138 8 0
195 541 189 547 -2 2 -26 -58 -52 -134z"/>
<path d="M1416 691 c-11 -17 -196 -563 -195 -575 1 -14 16 27 122 337 77 221
91 268 73 238z"/>
<path d="M1335 390 c-59 -171 -105 -313 -102 -316 2 -2 52 136 111 307 59 171
105 313 103 315 -2 2 -52 -136 -112 -306z"/>
<path d="M1465 689 c-71 -195 -225 -653 -217 -644 12 13 232 648 226 654 -2 2
-6 -2 -9 -10z"/>
<path d="M1491 693 c-1 -6 -4 -20 -7 -30 -5 -17 -5 -17 6 0 6 10 9 23 6 30 -3
9 -5 9 -5 0z"/>
<path d="M1025 670 c-4 -12 -5 -24 -2 -27 3 -2 8 5 12 17 4 12 5 24 2 27 -3 2
-8 -5 -12 -17z"/>
<path d="M1280 448 c-95 -277 -96 -279 -82 -258 15 23 175 491 170 496 -3 2
-43 -105 -88 -238z"/>
<path d="M1426 504 c-25 -76 -44 -139 -42 -141 2 -2 25 58 50 133 25 76 44
139 42 141 -2 2 -25 -58 -50 -133z"/>
<path d="M936 479 c-3 -8 -17 -45 -30 -84 -14 -38 -23 -71 -21 -74 3 -2 7 2 9
10 3 8 17 45 30 84 14 38 23 71 21 74 -3 2 -7 -2 -9 -10z"/>
<path d="M931 394 c-13 -35 -21 -67 -18 -70 3 -3 15 25 27 61 29 86 21 94 -9
9z"/>
<path d="M948 372 c-9 -29 -14 -52 -12 -52 8 0 35 75 32 89 -2 8 -10 -9 -20
-37z"/>
<path d="M970 360 c-7 -17 -10 -33 -8 -36 3 -3 11 9 17 27 14 42 7 49 -9 9z"/>
<path d="M986 335 c-3 -8 -1 -15 4 -15 6 0 10 7 10 15 0 8 -2 15 -4 15 -2 0
-6 -7 -10 -15z"/>
<path d="M1326 214 c-25 -76 -44 -139 -42 -141 2 -2 25 58 50 133 25 76 44
139 42 141 -2 2 -25 -58 -50 -133z"/>
<path d="M806 107 c-16 -45 -31 -89 -34 -97 -3 -8 -1 -11 4 -7 11 11 73 187
65 187 -3 0 -19 -37 -35 -83z"/>
<path d="M831 104 c-18 -48 -30 -92 -28 -98 2 -6 18 32 35 83 18 52 30 96 28
98 -2 2 -18 -35 -35 -83z"/>
<path d="M853 93 c-18 -53 -29 -92 -24 -87 13 15 71 184 63 184 -4 0 -22 -43
-39 -97z"/>
<path d="M880 100 c-17 -50 -30 -93 -27 -96 3 -3 19 36 36 87 17 51 29 94 27
96 -2 2 -18 -37 -36 -87z"/>
<path d="M903 93 c-18 -53 -28 -92 -23 -87 14 14 70 184 62 184 -4 0 -22 -43
-39 -97z"/>
<path d="M931 99 c-18 -50 -30 -93 -28 -95 2 -3 19 37 36 87 18 50 30 93 28
95 -2 3 -19 -37 -36 -87z"/>
<path d="M979 163 c-30 -76 -57 -163 -51 -163 4 0 22 43 39 95 17 52 29 95 27
95 -3 0 -9 -12 -15 -27z"/>
<path d="M981 99 c-17 -51 -29 -94 -27 -96 2 -2 18 37 36 87 18 50 30 93 27
96 -2 3 -19 -36 -36 -87z"/>
<path d="M1031 168 c-4 -13 -18 -51 -30 -85 -13 -34 -21 -67 -19 -73 2 -6 17
32 35 85 17 52 29 95 27 95 -3 0 -8 -10 -13 -22z"/>
<path d="M1055 160 c-13 -21 -55 -154 -50 -158 3 -3 5 -3 5 -1 0 3 13 42 30
87 27 74 32 100 15 72z"/>
<path d="M1065 119 c-22 -62 -35 -103 -34 -113 0 -6 11 18 24 54 13 35 22 66
20 69 -3 2 -7 -2 -10 -10z"/>
<path d="M1071 62 c-24 -66 -25 -68 -14 -57 12 12 37 84 31 90 -2 3 -10 -12
-17 -33z"/>
<path d="M1086 34 c-4 -14 -5 -28 -3 -31 3 -2 8 8 11 23 4 14 5 28 3 31 -3 2
-8 -8 -11 -23z"/>
<path d="M1266 45 c-3 -9 -6 -22 -5 -28 0 -7 5 -1 10 12 5 13 8 26 5 28 -2 2
-6 -3 -10 -12z"/>
<path d="M1100 9 c0 -5 5 -7 10 -4 6 3 10 8 10 11 0 2 -4 4 -10 4 -5 0 -10 -5
-10 -11z"/>
</g>
</svg>
