<?xml version="1.0" standalone="no"?>
<!DOCTYPE svg PUBLIC "-//W3C//DTD SVG 20010904//EN"
 "http://www.w3.org/TR/2001/REC-SVG-20010904/DTD/svg10.dtd">
<svg version="1.0" xmlns="http://www.w3.org/2000/svg"
 width="552.000000pt" height="203.000000pt" viewBox="0 0 552.000000 203.000000"
 preserveAspectRatio="xMidYMid meet">

<g transform="translate(0.000000,203.000000) scale(0.100000,-0.100000)"
fill="#000000" stroke="none">
<path d="M77 1648 c2 -156 8 -317 14 -358 32 -222 157 -436 323 -555 62 -44
175 -105 195 -105 6 0 1 19 -12 42 -19 37 -23 63 -27 188 l-5 145 -22 -24
c-27 -29 -53 -102 -53 -150 -1 -34 -1 -35 -16 -16 -24 32 -54 143 -54 199 0
67 36 143 86 184 22 18 73 50 114 71 89 47 127 84 136 131 l6 35 -21 -33 c-25
-39 -64 -57 -150 -71 -63 -10 -113 -37 -131 -72 -10 -18 -12 -18 -34 -4 -23
16 -42 50 -48 89 -3 17 4 19 50 20 46 1 57 5 78 30 30 34 28 44 -16 74 -45 30
-93 29 -118 -3 l-20 -25 -27 22 c-22 17 -26 27 -22 53 4 25 2 32 -10 31 -37
-3 -20 26 39 68 67 47 103 80 128 115 8 12 44 34 80 48 56 23 85 27 217 33
166 7 188 14 223 73 11 18 20 35 20 40 0 4 -208 7 -463 7 l-463 0 3 -282z"/>
<path d="M3815 1926 c-5 -3 -54 -8 -107 -11 l-98 -7 0 -644 0 -644 175 0 175
0 0 220 0 220 28 0 c52 1 166 30 230 60 78 36 188 143 220 213 102 220 48 441
-131 530 -89 45 -160 59 -327 63 -85 2 -159 2 -165 0z m278 -281 c29 -19 57
-81 57 -128 0 -87 -50 -165 -118 -185 -76 -23 -72 -32 -72 164 l0 177 54 -6
c30 -3 65 -13 79 -22z"/>
<path d="M1347 1698 c-17 -567 -97 -815 -330 -1026 l-57 -52 355 0 355 0 0
250 0 249 158 3 c86 2 167 1 180 -1 l22 -3 0 -249 0 -249 180 0 180 0 -2 648
-3 647 -177 3 -178 2 -2 -252 -3 -253 -175 0 -175 0 -3 253 -2 252 -159 0
-158 0 -6 -222z"/>
<path d="M2650 1270 l0 -650 380 0 380 0 0 150 0 150 -204 0 -204 0 1 102 2
103 163 3 162 2 0 140 0 140 -162 2 -163 3 0 100 0 100 183 3 182 2 0 150 0
150 -360 0 -360 0 0 -650z"/>
<path d="M4660 1270 l0 -650 390 0 390 0 2 95 c1 52 2 119 2 148 l1 52 -212 3
-213 2 -2 498 -3 497 -177 3 -178 2 0 -650z"/>
<path d="M491 1677 c-17 -17 -13 -27 8 -27 25 0 51 10 51 20 0 13 -48 18 -59
7z"/>
<path d="M1630 275 c0 -113 2 -135 15 -135 13 0 15 22 15 135 0 113 -2 135
-15 135 -13 0 -15 -22 -15 -135z"/>
<path d="M2093 370 c5 -37 3 -40 -18 -40 -61 0 -95 -39 -95 -109 0 -51 27 -84
66 -82 16 1 41 2 57 2 l27 0 0 134 c0 131 -1 135 -21 135 -19 0 -21 -4 -16
-40z m1 -97 c12 -62 -4 -112 -36 -113 -18 0 -48 42 -48 68 0 64 72 103 84 45z"/>
<path d="M2450 275 c0 -128 1 -135 20 -135 19 0 20 7 20 135 0 128 -1 135 -20
135 -19 0 -20 -7 -20 -135z"/>
<path d="M4324 370 c6 -38 5 -40 -18 -40 -62 0 -96 -39 -96 -109 0 -51 27 -84
66 -82 16 1 41 2 57 2 l27 0 0 134 c0 131 -1 135 -21 135 -20 0 -21 -4 -15
-40z m2 -133 c2 -61 -15 -84 -51 -71 -58 23 -38 139 23 132 26 -3 27 -6 28
-61z"/>
<path d="M4956 401 c-5 -7 55 -51 70 -51 15 0 -1 29 -25 43 -33 20 -38 20 -45
8z"/>
<path d="M3493 384 c-3 -8 -1 -20 5 -26 15 -15 43 8 35 28 -7 19 -32 18 -40
-2z"/>
<path d="M4844 389 c-3 -6 0 -17 7 -25 18 -17 44 -2 36 20 -7 18 -33 21 -43 5z"/>
<path d="M70 260 c0 -113 1 -120 20 -120 18 0 20 7 20 56 l0 55 53 -3 52 -3 3
-52 c2 -38 7 -53 18 -53 11 0 14 22 14 120 0 108 -2 120 -17 120 -15 0 -18 -8
-16 -50 l1 -50 -54 0 -54 0 0 50 c0 43 -3 50 -20 50 -19 0 -20 -7 -20 -120z"/>
<path d="M1100 260 l0 -120 66 0 c48 0 65 3 62 13 -3 6 -25 13 -49 15 l-44 3
3 39 c4 38 6 40 38 40 24 0 34 5 34 15 0 10 -10 15 -34 15 -26 0 -35 5 -39 21
-10 36 2 49 44 49 28 0 39 4 39 15 0 12 -13 15 -60 15 l-60 0 0 -120z"/>
<path d="M2820 260 c0 -100 3 -120 15 -120 11 0 15 12 15 50 0 44 3 50 20 50
66 0 108 65 76 115 -14 22 -24 25 -71 25 l-55 0 0 -120z m84 94 c10 -4 16 -18
16 -38 0 -25 -6 -35 -25 -44 -41 -19 -45 -15 -45 38 0 52 11 61 54 44z"/>
<path d="M4690 260 l0 -120 60 0 c47 0 60 3 60 15 0 11 -12 15 -45 15 l-45 0
0 105 c0 87 -3 105 -15 105 -12 0 -15 -20 -15 -120z"/>
<path d="M710 346 c0 -8 -7 -16 -15 -20 -8 -3 -15 -10 -15 -16 0 -5 7 -10 15
-10 12 0 15 -14 15 -69 0 -76 11 -95 55 -89 26 3 35 22 12 24 -6 1 -18 2 -24
3 -9 1 -13 21 -13 66 0 63 1 65 25 65 16 0 25 6 25 15 0 9 -9 15 -25 15 -16 0
-25 6 -25 15 0 8 -7 15 -15 15 -8 0 -15 -6 -15 -14z"/>
<path d="M320 320 c-13 -8 -13 -10 0 -14 8 -3 29 -6 45 -8 24 -2 31 -8 33 -28
3 -23 -2 -27 -40 -35 -34 -8 -45 -16 -52 -38 -13 -35 10 -60 51 -58 15 1 40 2
54 2 l26 0 -5 82 c-3 59 -8 85 -20 95 -19 14 -71 16 -92 2z m80 -125 c0 -18
-7 -26 -26 -31 -17 -4 -29 -2 -34 6 -16 25 3 45 48 49 6 0 12 -10 12 -24z"/>
<path d="M498 248 c2 -46 9 -89 14 -95 6 -8 33 -12 69 -11 l59 2 0 93 c0 82
-2 93 -18 93 -15 0 -17 -8 -14 -75 4 -72 3 -75 -22 -86 -43 -20 -56 1 -56 87
0 65 -2 74 -18 74 -17 0 -18 -7 -14 -82z"/>
<path d="M858 320 c-27 -16 -41 -72 -28 -119 13 -48 36 -63 93 -59 48 3 49 23
1 23 -40 1 -64 20 -64 51 0 22 4 24 56 24 l57 0 -7 33 c-3 17 -14 38 -23 45
-20 14 -61 15 -85 2z m58 -18 c6 -4 13 -15 17 -24 5 -15 0 -18 -33 -18 -43 0
-49 9 -24 34 17 18 24 19 40 8z"/>
<path d="M1285 298 c-23 -27 -26 -39 -22 -75 6 -60 30 -83 84 -83 32 0 43 4
43 15 0 10 -8 15 -22 14 -46 -4 -57 1 -68 36 -17 52 3 89 53 93 53 4 51 32 -2
32 -32 0 -44 -6 -66 -32z"/>
<path d="M1450 312 c-16 -13 -24 -32 -27 -68 -7 -67 21 -104 77 -104 51 0 80
35 80 95 0 82 -72 124 -130 77z m93 -49 c12 -41 2 -80 -23 -93 -46 -24 -84 41
-61 103 9 24 16 28 43 25 27 -2 34 -9 41 -35z"/>
<path d="M1743 308 c-27 -31 -35 -67 -22 -112 12 -44 53 -67 103 -57 39 8 32
26 -10 26 -39 0 -64 20 -64 51 0 22 4 24 56 24 l57 0 -7 32 c-3 17 -11 37 -17
45 -18 21 -73 16 -96 -9z m71 -14 c25 -25 19 -34 -24 -34 -22 0 -40 4 -40 9 0
12 29 41 40 41 5 0 16 -7 24 -16z"/>
<path d="M2205 305 c-33 -32 -35 -100 -4 -139 18 -23 27 -27 67 -24 28 2 47 8
50 17 4 11 -3 12 -31 7 -29 -5 -40 -3 -57 14 -11 11 -20 29 -20 40 0 18 7 20
55 20 54 0 55 1 55 28 0 60 -70 82 -115 37z m79 -17 c14 -23 5 -30 -38 -26
-36 3 -36 3 -20 26 18 26 41 26 58 0z"/>
<path d="M2557 323 c-16 -15 -5 -23 32 -23 32 0 40 -4 45 -22 9 -36 8 -38 -22
-38 -41 0 -72 -26 -72 -61 0 -34 31 -52 66 -38 12 4 31 5 43 2 20 -5 21 -2 21
69 0 92 -15 118 -69 118 -21 0 -41 -3 -44 -7z m79 -118 c8 -20 -13 -45 -38
-45 -27 0 -35 30 -13 46 25 18 44 18 51 -1z"/>
<path d="M3000 235 c0 -78 3 -95 15 -95 12 0 15 15 15 71 0 69 1 71 30 82 17
6 30 17 30 24 0 16 -15 17 -41 3 -13 -7 -19 -7 -19 0 0 5 -7 10 -15 10 -12 0
-15 -17 -15 -95z"/>
<path d="M3133 304 c-23 -23 -25 -31 -21 -81 6 -65 23 -83 78 -83 53 0 75 28
75 95 0 38 -5 59 -19 74 -27 30 -80 28 -113 -5z m97 -33 c31 -76 -43 -150 -80
-80 -26 48 -4 109 39 109 22 0 31 -7 41 -29z"/>
<path d="M3300 318 c0 -6 12 -49 27 -95 36 -111 50 -111 92 5 36 100 36 102
17 102 -9 0 -23 -26 -37 -69 -13 -39 -26 -68 -29 -66 -4 2 -15 34 -25 70 -11
40 -22 65 -31 65 -8 0 -14 -5 -14 -12z"/>
<path d="M3494 293 c3 -21 6 -64 6 -95 0 -45 3 -58 15 -58 12 0 15 17 15 95 0
90 -1 95 -21 95 -19 0 -21 -4 -15 -37z"/>
<path d="M3590 235 c0 -78 3 -95 15 -95 12 0 15 14 15 69 0 75 12 95 52 89 21
-3 23 -8 26 -80 3 -70 5 -78 22 -78 18 0 20 7 20 68 0 86 -15 116 -58 120 -18
2 -40 -2 -48 -9 -10 -8 -14 -8 -14 0 0 6 -7 11 -15 11 -12 0 -15 -17 -15 -95z"/>
<path d="M3815 305 c-20 -19 -25 -34 -25 -75 0 -67 24 -92 83 -88 48 3 53 23
6 23 -37 0 -59 26 -59 69 0 44 13 58 56 65 53 9 57 31 4 31 -30 0 -47 -6 -65
-25z"/>
<path d="M3972 310 c-22 -26 -30 -66 -21 -110 10 -46 34 -62 89 -58 50 3 54
23 4 23 -39 0 -64 20 -64 51 0 22 4 24 56 24 l57 0 -7 32 c-3 17 -11 37 -17
45 -18 20 -76 16 -97 -7z m72 -16 c25 -25 19 -34 -24 -34 -22 0 -40 4 -40 9 0
12 29 41 40 41 5 0 16 -7 24 -16z"/>
<path d="M4431 304 c-28 -36 -28 -102 0 -138 18 -23 27 -27 67 -24 59 4 70 28
12 25 -45 -1 -70 18 -70 55 0 15 9 18 55 18 54 0 55 1 55 28 0 62 -80 85 -119
36z m83 -17 c14 -22 4 -29 -40 -25 l-39 3 23 23 c25 25 40 25 56 -1z"/>
<path d="M4849 326 c-2 -2 -3 -45 -1 -95 3 -71 7 -91 18 -91 11 0 14 19 14 95
0 73 -3 95 -13 95 -8 0 -16 -2 -18 -4z"/>
<path d="M4961 311 c-31 -31 -38 -89 -15 -130 20 -37 54 -52 98 -44 39 8 33
31 -8 30 -41 -1 -66 17 -66 49 0 22 4 24 54 24 l54 0 -5 33 c-2 17 -12 38 -21
45 -24 18 -69 15 -91 -7z m63 -7 c9 -3 16 -15 16 -25 0 -15 -7 -19 -35 -19
-39 0 -48 21 -17 39 21 13 17 12 36 5z"/>
<path d="M5136 314 c-18 -17 -22 -79 -6 -89 8 -5 7 -11 0 -20 -6 -8 -10 -22
-9 -32 1 -10 -1 -26 -5 -35 -4 -9 -6 -27 -4 -39 9 -64 124 -59 155 6 22 46 7
63 -60 67 -38 2 -52 7 -52 18 0 9 11 16 30 18 40 5 65 29 65 64 0 18 5 28 15
28 8 0 15 7 15 15 0 22 -122 21 -144 -1z m78 -26 c15 -25 -4 -53 -35 -53 -19
0 -25 6 -27 29 -5 45 38 61 62 24z m36 -164 c0 -21 -45 -46 -77 -42 -27 3 -40
25 -30 51 7 18 107 9 107 -9z"/>
<path d="M5338 320 c-40 -24 -46 -131 -10 -163 28 -25 112 -26 112 -2 0 10
-10 14 -36 13 -38 -1 -60 15 -66 47 -3 18 3 20 50 23 52 3 52 3 52 37 0 24 -6
38 -19 45 -24 13 -61 13 -83 0z m56 -16 c9 -3 16 -15 16 -25 0 -15 -7 -19 -35
-19 -39 0 -48 21 -17 39 21 13 17 12 36 5z"/>
</g>
</svg>
